<?xml version="1.0" encoding="UTF-8" standalone="no"?>
<!-- Created with Inkscape (http://www.inkscape.org/) -->

<svg
   width="150mm"
   height="150mm"
   viewBox="0 0 150 150"
   version="1.1"
   id="svg12368"
   inkscape:version="1.2.2 (b0a8486541, 2022-12-01)"
   sodipodi:docname="wet_sink_crawl.svg"
   xmlns:inkscape="http://www.inkscape.org/namespaces/inkscape"
   xmlns:sodipodi="http://sodipodi.sourceforge.net/DTD/sodipodi-0.dtd"
   xmlns:xlink="http://www.w3.org/1999/xlink"
   xmlns="http://www.w3.org/2000/svg"
   xmlns:svg="http://www.w3.org/2000/svg">
  <sodipodi:namedview
     id="namedview12370"
     pagecolor="#ffffff"
     bordercolor="#000000"
     borderopacity="0.25"
     inkscape:showpageshadow="2"
     inkscape:pageopacity="0.0"
     inkscape:pagecheckerboard="0"
     inkscape:deskcolor="#d1d1d1"
     inkscape:document-units="mm"
     showgrid="false"
     inkscape:zoom="0.83972969"
     inkscape:cx="659.73611"
     inkscape:cy="377.50243"
     inkscape:window-width="1504"
     inkscape:window-height="1002"
     inkscape:window-x="0"
     inkscape:window-y="0"
     inkscape:window-maximized="1"
     inkscape:current-layer="layer1" />
  <defs
     id="defs12365">
    <symbol
       id="arrow-down"
       viewBox="0 0 10 16">
      <title
         id="title86247">arrow-down</title>
      <path
         d="M 7,7 V 3 H 3 V 7 H 0 l 5,6 5,-6 z"
         id="path86249" />
    </symbol>
    <symbol
       id="radio-tower"
       viewBox="0 0 16 16">
      <title
         id="title169964">radio-tower</title>
      <path
         d="M 4.79,6.11 C 5.04,5.86 5.04,5.44 4.79,5.19 4.47,4.86 4.31,4.43 4.31,4 4.31,3.57 4.47,3.14 4.79,2.81 5.04,2.55 5.04,2.14 4.79,1.89 4.67,1.76 4.5,1.7 4.34,1.7 4.18,1.7 4.01,1.76 3.89,1.89 3.32,2.47 3.04,3.24 3.04,4 c 0,0.76 0.29,1.53 0.85,2.11 0.25,0.25 0.66,0.25 0.9,0 z M 2.33,0.52 C 2.2,0.39 2.04,0.33 1.87,0.33 1.71,0.33 1.54,0.39 1.41,0.52 0.48,1.48 0.01,2.74 0.01,3.99 c 0,1.26 0.47,2.52 1.4,3.48 0.25,0.26 0.66,0.26 0.91,0 C 2.57,7.21 2.57,6.79 2.32,6.53 1.64,5.83 1.3,4.91 1.3,3.99 1.3,3.07 1.64,2.15 2.32,1.45 2.58,1.2 2.58,0.78 2.33,0.52 Z m 5.69,5.1 C 8.92,5.62 9.64,4.89 9.64,4 9.64,3.1 8.91,2.38 8.02,2.38 7.12,2.38 6.4,3.11 6.4,4 6.39,4.89 7.12,5.62 8.02,5.62 Z m 6.57,-5.09 c -0.25,-0.26 -0.66,-0.26 -0.91,0 -0.25,0.26 -0.25,0.68 0,0.94 0.68,0.7 1.02,1.62 1.02,2.54 0,0.92 -0.34,1.83 -1.02,2.54 -0.25,0.26 -0.25,0.68 0,0.94 0.13,0.13 0.29,0.19 0.46,0.19 0.16,0 0.33,-0.06 0.46,-0.19 C 15.53,6.53 16,5.27 16,4.01 15.99,2.75 15.52,1.49 14.59,0.53 Z M 8.02,6.92 c -0.41,0 -0.83,-0.1 -1.2,-0.3 l -3.15,8.37 h 1.49 l 0.86,-1 h 4 l 0.84,1 h 1.49 L 9.21,6.62 C 8.83,6.82 8.43,6.92 8.02,6.92 Z M 8.01,7.4 9.02,11 h -2 z m -1.99,5.59 1,-1 h 2 l 1,1 z m 5.19,-11.1 c -0.25,0.25 -0.25,0.67 0,0.92 0.32,0.33 0.48,0.76 0.48,1.19 0,0.43 -0.16,0.86 -0.48,1.19 -0.25,0.26 -0.25,0.67 0,0.92 0.12,0.13 0.29,0.19 0.45,0.19 0.16,0 0.32,-0.06 0.45,-0.19 0.57,-0.58 0.85,-1.35 0.85,-2.11 0,-0.76 -0.28,-1.53 -0.85,-2.11 -0.25,-0.25 -0.66,-0.25 -0.9,0 z"
         id="path169966" />
    </symbol>
    <clipPath
       clipPathUnits="userSpaceOnUse"
       id="clipPath184631">
      <rect
         style="fill:none;stroke:#2b0000;stroke-width:1.97788"
         id="rect184633"
         width="955.42822"
         height="891.3374"
         x="-570.12482"
         y="-526.31744" />
    </clipPath>
    <clipPath
       clipPathUnits="userSpaceOnUse"
       id="clipPath184635">
      <rect
         style="fill:none;stroke:#2b0000;stroke-width:1.97788"
         id="rect184637"
         width="955.42822"
         height="891.3374"
         x="-676.29712"
         y="-582.62476" />
    </clipPath>
    <clipPath
       clipPathUnits="userSpaceOnUse"
       id="clipPath184639">
      <rect
         style="fill:none;stroke:#2b0000;stroke-width:1.97788"
         id="rect184641"
         width="955.42822"
         height="891.3374"
         x="-761.85223"
         y="-619.31989" />
    </clipPath>
    <clipPath
       clipPathUnits="userSpaceOnUse"
       id="clipPath184643">
      <rect
         style="fill:none;stroke:#2b0000;stroke-width:0.511278"
         id="rect184645"
         width="252.99149"
         height="224.93068"
         x="-233.66739"
         y="-126.56075"
         transform="rotate(-45.725408)" />
    </clipPath>
    <clipPath
       clipPathUnits="userSpaceOnUse"
       id="clipPath184647">
      <rect
         style="fill:none;stroke:#2b0000;stroke-width:0.264583"
         id="rect184649"
         width="131.62917"
         height="115.77428"
         x="91.068298"
         y="49.301987" />
    </clipPath>
    <clipPath
       clipPathUnits="userSpaceOnUse"
       id="clipPath184651">
      <rect
         style="fill:none;stroke:#2b0000;stroke-width:0.264583"
         id="rect184653"
         width="131.62917"
         height="115.77428"
         x="91.068298"
         y="49.301987" />
    </clipPath>
    <clipPath
       clipPathUnits="userSpaceOnUse"
       id="clipPath184655">
      <rect
         style="fill:none;stroke:#2b0000;stroke-width:0.264583"
         id="rect184657"
         width="131.62917"
         height="115.77428"
         x="91.068298"
         y="49.301987" />
    </clipPath>
    <clipPath
       clipPathUnits="userSpaceOnUse"
       id="clipPath184659">
      <rect
         style="fill:none;stroke:#2b0000;stroke-width:0.264583"
         id="rect184661"
         width="131.62917"
         height="115.77428"
         x="91.068298"
         y="49.301987" />
    </clipPath>
    <clipPath
       clipPathUnits="userSpaceOnUse"
       id="clipPath184663">
      <rect
         style="fill:none;stroke:#2b0000;stroke-width:0.264583"
         id="rect184665"
         width="131.62917"
         height="115.77428"
         x="245.74071"
         y="0.83329499" />
    </clipPath>
    <clipPath
       clipPathUnits="userSpaceOnUse"
       id="clipPath184667">
      <rect
         style="fill:none;stroke:#2b0000;stroke-width:0.264583"
         id="rect184669"
         width="131.62917"
         height="115.77428"
         x="91.068298"
         y="49.301987" />
    </clipPath>
    <clipPath
       clipPathUnits="userSpaceOnUse"
       id="clipPath184671">
      <rect
         style="fill:none;stroke:#2b0000;stroke-width:0.264583"
         id="rect184673"
         width="131.62917"
         height="115.77428"
         x="91.068298"
         y="49.301987" />
    </clipPath>
    <clipPath
       clipPathUnits="userSpaceOnUse"
       id="clipPath184675">
      <rect
         style="fill:none;stroke:#2b0000;stroke-width:0.264583"
         id="rect184677"
         width="131.62917"
         height="115.77428"
         x="91.068298"
         y="49.301987" />
    </clipPath>
    <clipPath
       clipPathUnits="userSpaceOnUse"
       id="clipPath184679">
      <rect
         style="fill:none;stroke:#2b0000;stroke-width:0.264583"
         id="rect184681"
         width="131.62917"
         height="115.77428"
         x="91.068298"
         y="49.301987" />
    </clipPath>
    <clipPath
       clipPathUnits="userSpaceOnUse"
       id="clipPath184683">
      <rect
         style="fill:none;stroke:#2b0000;stroke-width:0.264583"
         id="rect184685"
         width="131.62917"
         height="115.77428"
         x="91.068298"
         y="49.301987" />
    </clipPath>
    <clipPath
       clipPathUnits="userSpaceOnUse"
       id="clipPath184687">
      <rect
         style="fill:none;stroke:#2b0000;stroke-width:0.264583"
         id="rect184689"
         width="131.62917"
         height="115.77428"
         x="91.068298"
         y="49.301987" />
    </clipPath>
    <clipPath
       clipPathUnits="userSpaceOnUse"
       id="clipPath184691">
      <rect
         style="fill:none;stroke:#2b0000;stroke-width:0.264583"
         id="rect184693"
         width="131.62917"
         height="115.77428"
         x="91.068298"
         y="49.301987" />
    </clipPath>
    <clipPath
       clipPathUnits="userSpaceOnUse"
       id="clipPath184695">
      <rect
         style="fill:none;stroke:#2b0000;stroke-width:0.264583"
         id="rect184697"
         width="131.62917"
         height="115.77428"
         x="91.068298"
         y="49.301987" />
    </clipPath>
    <clipPath
       clipPathUnits="userSpaceOnUse"
       id="clipPath184699">
      <rect
         style="fill:none;stroke:#2b0000;stroke-width:0.264583"
         id="rect184701"
         width="131.62917"
         height="115.77428"
         x="91.068298"
         y="49.301987" />
    </clipPath>
    <clipPath
       clipPathUnits="userSpaceOnUse"
       id="clipPath184703">
      <rect
         style="fill:none;stroke:#2b0000;stroke-width:0.264583"
         id="rect184705"
         width="131.62917"
         height="115.77428"
         x="91.068298"
         y="49.301987" />
    </clipPath>
    <clipPath
       clipPathUnits="userSpaceOnUse"
       id="clipPath184707">
      <rect
         style="fill:none;stroke:#2b0000;stroke-width:0.264583"
         id="rect184709"
         width="131.62917"
         height="115.77428"
         x="91.068298"
         y="49.301987" />
    </clipPath>
    <clipPath
       clipPathUnits="userSpaceOnUse"
       id="clipPath184711">
      <rect
         style="fill:none;stroke:#2b0000;stroke-width:0.264583"
         id="rect184713"
         width="131.62917"
         height="115.77428"
         x="91.068298"
         y="49.301987" />
    </clipPath>
    <clipPath
       clipPathUnits="userSpaceOnUse"
       id="clipPath184715">
      <rect
         style="fill:none;stroke:#2b0000;stroke-width:0.264583"
         id="rect184717"
         width="131.62917"
         height="115.77428"
         x="91.068298"
         y="49.301987" />
    </clipPath>
    <clipPath
       clipPathUnits="userSpaceOnUse"
       id="clipPath184719">
      <rect
         style="fill:none;stroke:#2b0000;stroke-width:0.264583"
         id="rect184721"
         width="131.62917"
         height="115.77428"
         x="91.068298"
         y="49.301987" />
    </clipPath>
    <clipPath
       clipPathUnits="userSpaceOnUse"
       id="clipPath184723">
      <rect
         style="fill:none;stroke:#2b0000;stroke-width:0.264583"
         id="rect184725"
         width="131.62917"
         height="115.77428"
         x="91.068298"
         y="49.301987" />
    </clipPath>
    <clipPath
       clipPathUnits="userSpaceOnUse"
       id="clipPath184727">
      <rect
         style="fill:none;stroke:#2b0000;stroke-width:0.264583"
         id="rect184729"
         width="131.62917"
         height="115.77428"
         x="91.068298"
         y="49.301987" />
    </clipPath>
    <clipPath
       clipPathUnits="userSpaceOnUse"
       id="clipPath184731">
      <rect
         style="fill:none;stroke:#2b0000;stroke-width:0.264583"
         id="rect184733"
         width="131.62917"
         height="115.77428"
         x="91.068298"
         y="49.301987" />
    </clipPath>
    <clipPath
       clipPathUnits="userSpaceOnUse"
       id="clipPath184735">
      <rect
         style="fill:none;stroke:#2b0000;stroke-width:0.264583"
         id="rect184737"
         width="131.62917"
         height="115.77428"
         x="91.068298"
         y="49.301987" />
    </clipPath>
    <clipPath
       clipPathUnits="userSpaceOnUse"
       id="clipPath184739">
      <rect
         style="fill:none;stroke:#2b0000;stroke-width:0.264583"
         id="rect184741"
         width="131.62917"
         height="115.77428"
         x="91.068298"
         y="49.301987" />
    </clipPath>
    <clipPath
       clipPathUnits="userSpaceOnUse"
       id="clipPath184743">
      <rect
         style="fill:none;stroke:#2b0000;stroke-width:0.264583"
         id="rect184745"
         width="131.62917"
         height="115.77428"
         x="91.068298"
         y="49.301987" />
    </clipPath>
    <clipPath
       clipPathUnits="userSpaceOnUse"
       id="clipPath184747">
      <rect
         style="fill:none;stroke:#2b0000;stroke-width:0.264583"
         id="rect184749"
         width="131.62917"
         height="115.77428"
         x="91.068298"
         y="49.301987" />
    </clipPath>
    <clipPath
       clipPathUnits="userSpaceOnUse"
       id="clipPath184751">
      <rect
         style="fill:none;stroke:#2b0000;stroke-width:0.264583"
         id="rect184753"
         width="131.62917"
         height="115.77428"
         x="91.068298"
         y="49.301987" />
    </clipPath>
    <clipPath
       clipPathUnits="userSpaceOnUse"
       id="clipPath184755">
      <rect
         style="fill:none;stroke:#2b0000;stroke-width:0.264583"
         id="rect184757"
         width="131.62917"
         height="115.77428"
         x="91.068298"
         y="49.301987" />
    </clipPath>
    <clipPath
       clipPathUnits="userSpaceOnUse"
       id="clipPath184759">
      <rect
         style="fill:none;stroke:#2b0000;stroke-width:0.264583"
         id="rect184761"
         width="131.62917"
         height="115.77428"
         x="91.068298"
         y="49.301987" />
    </clipPath>
  </defs>
  <g
     inkscape:label="Layer 1"
     inkscape:groupmode="layer"
     id="layer1">
    <path
       style="fill:none;stroke:#1a1a18;stroke-width:0.250014;stroke-linecap:butt;stroke-linejoin:miter;stroke-miterlimit:22.9256;stroke-dasharray:none;stroke-opacity:1"
       d="m 122.53826,127.0906 c 0.71479,-0.7148 5.1042,-0.95388 5.1042,-0.38008 0.37877,0.1894 1.7327,-0.4838 2.0091,-0.76021 1.3734,0 0.4868,-0.70199 0.92308,-1.57469 0,-1.16812 1.08521,-4.29052 0.32582,-5.04991 0,-1.80019 1.14089,-1.68391 2.11769,-2.66068 2.41611,0 0.55291,-1.85523 2.3748,-1.85523 0.63669,0 1.5229,-1.88199 1.31791,-2.29199 0,-0.90961 -0.34382,-1.35919 -0.34382,-2.23471 0.0573,0 0.11462,-0.0573 0.17191,-0.11458 2.1759,0 4.37229,-0.11462 6.53221,-0.11462 0.0201,0 0.76581,0.28653 0.6876,0.28653 0.53368,0 1.5633,0.63027 2.63577,0.63027 0.36562,0 0.60463,0.40111 0.97413,0.40111 0.34378,0.17191 1.03138,0 1.43249,0 0.40111,-0.17191 1.31791,-0.0573 1.77631,-0.0573 0,0.61369 1.3179,0.0113 1.3179,0.74489 0.37328,0.37331 1.8336,0.60579 1.8336,1.146 0.34498,0.34501 0.85947,0.36099 0.85947,0.97409 -0.14157,0 0.0573,0.64202 0.0573,0.74492 0,-0.26631 -0.2226,0.28649 -0.34382,0.28649 0,0.63701 -0.2087,0.80218 0.57302,0.80218 0.4584,-0.2292 1.20329,0.0573 1.77631,0.0573 0.98689,0 1.95908,-0.11462 2.92227,-0.11462 1.15432,0 2.329,0.17191 3.49532,0.17191 0.46538,0.93081 2.65948,0.2292 3.3807,0.2292 0,-0.25499 3.5886,1.2966 3.72449,1.43249 0.0573,0.0573 0.17191,0.28653 0.28649,0.28653"
       id="path13959"
       clip-path="url(#clipPath184759)"
       transform="translate(-80.999343,-33.73588)" />
    <path
       style="fill:none;stroke:#1a1a18;stroke-width:0.250014;stroke-linecap:butt;stroke-linejoin:miter;stroke-miterlimit:22.9256;stroke-dasharray:none;stroke-opacity:1"
       d="m 122.59256,128.068 c 0,-0.33358 -0.0543,-0.65239 -0.0543,-0.9774"
       id="path13957"
       clip-path="url(#clipPath184755)"
       transform="translate(-80.999343,-33.73588)" />
    <path
       d="m 123.35997,124.95192 c 0,0.0573 -0.11459,0.17191 -0.17191,0.2292 0,0.0573 -0.11459,0.28649 -0.17188,0.28649 0,0 0,0.17191 0,0.17191 0,0.0573 -0.0573,0.11458 -0.0573,0.2292 -0.0573,0 -0.0573,0.11458 -0.0573,0.17191 -0.0573,0 -0.0573,0.11458 -0.0573,0.17187 0.1719,0 0.34378,-0.0573 0.51569,-0.11458 -0.34379,0.11458 -0.17191,0.0573 0.11461,0 0.17188,-0.17191 0.63028,-0.28649 0.85948,-0.40111 0.11461,0 0.34381,-0.0573 0.4584,-0.0573 0,-0.0573 0.0573,-0.11462 0.11461,-0.11462 -0.11461,0.0573 -0.0573,0 0.11458,0 0.11462,-0.0573 0.40111,-0.17187 0.57302,-0.17187 0,-0.0573 0.11458,-0.11462 0.17191,-0.17191 0,-0.0573 0.0573,-0.11462 0.11458,-0.17191 0.74489,0 1.6044,0.34382 2.40662,0.34382 0.11458,-0.0573 0.40111,-0.11462 0.57298,-0.11462 0,-0.0573 0.0573,-0.0573 0.11462,-0.0573 0.0573,0 0.11458,-0.0573 0.1719,-0.0573 0,0 0.11459,-0.0573 0.11459,-0.0573 0,-0.0573 0.2292,-0.17187 0.28649,-0.2292 0,0 0.0573,-0.11458 0.0573,-0.11458 0,-0.6876 0.11459,-1.31791 0.11459,-2.00551 -0.17191,-0.34382 0.0573,-0.97409 -0.11459,-1.31791 0,-0.51569 0,-1.20328 0,-1.71898 -0.1719,-0.4011 0.0573,-1.03141 0.0573,-1.48981 0,0 0.0573,-0.11458 0.0573,-0.11458 0,0 0.11461,-0.11462 0.17191,-0.11462 0,-0.11458 0.22919,-0.28649 0.28649,-0.34378 0,-0.51573 0.0573,-1.08871 0.0573,-1.60444 0.11461,-0.28649 0.40111,-0.51569 0.63031,-0.74489 0,-0.34378 0.1719,-0.74489 0.1719,-1.0887 0.0573,-0.0573 0.17191,-0.17188 0.17191,-0.2292 -0.11462,0.1719 0,0.0573 0,-0.11459 -0.11462,0.28649 0,0.17191 0.11458,-0.11461 -0.2292,0.4011 -0.11458,0.28652 0,-0.11459 0,-0.0573 0.17191,-0.34381 0.17191,-0.4584 0.0573,-0.1719 0.11459,-0.22919 0.11459,-0.34381 0.0573,0 0.0573,-0.0573 0.0573,-0.11458 0,0 0.0573,-0.11462 0.0573,-0.11462 0,-0.11458 0,-0.34378 0,-0.4584 -0.0573,0 -0.0573,-0.0573 -0.0573,-0.11458 0,0.11458 0,0.0573 -0.11462,0 0,0 -0.0573,-0.0573 -0.0573,-0.0573 0,0 -0.0573,-0.11462 -0.0573,-0.11462 0,0 -0.0573,-0.11458 -0.0573,-0.11458 0,-0.11462 -0.11459,-0.2292 -0.11459,-0.28653 -0.0573,-0.0573 -0.17191,-0.17187 -0.17191,-0.2292 0,0 -0.0573,-0.0573 -0.0573,-0.0573 0.0573,0.0573 0,0 -0.11461,0 0,0 -0.0573,-0.0573 -0.0573,-0.0573 0,0 -0.11459,-0.11462 -0.17191,-0.11462 -0.11459,-0.11458 -0.2292,-0.28649 -0.34379,-0.40107 -0.0573,-0.0573 -0.28649,-0.28653 -0.34381,-0.34382 -0.0573,-0.11458 -0.17188,-0.2292 -0.2292,-0.28649 -0.0573,-0.17191 -0.11458,-0.34382 -0.11458,-0.51569 -0.0573,-0.11462 -0.11462,-0.11462 -0.11462,-0.34382 -0.0573,-0.2292 -0.2292,-0.4584 -0.2292,-0.74489 0,-0.0573 0.11462,-0.2292 0.11462,-0.28653 -0.11462,0.2292 0,0.0573 0,-0.11458 0,0 0.0573,-0.11461 0.0573,-0.11461 0,-0.17188 0,-0.34379 0,-0.5157 0,-0.11458 -0.0573,-0.1719 -0.0573,-0.2292 0,-0.0573 -0.0573,-0.1719 -0.0573,-0.22919 0,-0.0573 -0.11461,-0.11459 -0.11461,-0.17191 -0.11459,-0.2292 -0.17191,-0.17188 -0.17191,-0.34379 0,-0.0573 -0.0573,-0.11461 -0.11458,-0.11461 0.11458,0.0573 0.0573,0 0,-0.11459 0,-0.0573 -0.11462,-0.11461 -0.11462,-0.1719 0.11462,0.11461 0,0.0573 0,-0.11459 0,0 -0.0573,-0.0573 -0.0573,-0.0573 0,0 0,-0.17188 0,-0.17188 -0.0573,0 -0.0573,-0.0573 -0.0573,-0.11461 -0.11462,0 0,-0.0573 -0.11462,-0.0573 0,0.0573 0.11462,0 0,-0.11462 -0.0573,0 -0.0573,-0.0573 -0.0573,-0.11458 0,0 -0.17191,-0.17191 -0.17191,-0.17191 0,-0.0573 -0.11458,-0.17191 -0.11458,-0.2292 0,0 -0.0573,-0.0573 -0.0573,-0.0573 -0.11462,0 0,-0.0573 -0.11462,-0.0573 0,-0.0573 -0.0573,-0.11462 -0.11458,-0.17191 0.11458,0.11458 0.0573,0.0573 -0.11462,-0.2292 0,-0.0573 0,-0.17191 0,-0.2292 0,0 -0.0573,-0.0573 -0.0573,-0.0573 0,-0.0573 -0.0573,-0.11462 -0.0573,-0.17191 0,0 0.0573,-0.11462 0.0573,-0.11462 0,0 0.0573,-0.11458 0.0573,-0.11458 0,0 0.0573,-0.11462 0.0573,-0.11462 0,0 0.0573,-0.11458 0.0573,-0.11458 -0.0573,0.11458 0,0 0,-0.11462 0,0 0.0573,-0.11458 0.0573,-0.11458 0,-0.28649 0,-0.6876 0,-0.97409 0,0 0.0573,-0.0573 0.0573,-0.0573 0,-0.0573 0,-0.2292 0,-0.28649 0,-0.0573 0.0573,-0.11462 0.0573,-0.2292 0,0 0.0573,-0.0573 0.0573,-0.0573 0,0 0,-0.17191 0,-0.17191"
       style="fill:none;stroke:#1a1a18;stroke-width:0.250014;stroke-linecap:butt;stroke-linejoin:miter;stroke-miterlimit:22.9256;stroke-dasharray:none;stroke-opacity:1"
       id="path750"
       clip-path="url(#clipPath184751)"
       transform="translate(-80.999343,-33.73588)" />
    <path
       d="m 128.91809,101.34431 c 0,0.11458 0,0.28649 0,0.40111 0,0.0573 -0.11462,0.17191 -0.11462,0.2292 0,0.11458 0,0.2292 0,0.34378 0,0 -0.11458,0.0573 -0.11458,0.0573 0,0.0573 -0.11462,0.17187 -0.17191,0.17187 0,0.0573 -0.11462,0.2292 -0.11462,0.28653 0.0573,0 0.17191,0.2292 0.17191,0.28649 0.0573,0 0.11462,0.11458 0.17191,0.11458 0.6876,0 1.37519,-0.0573 2.06279,-0.0573 0.28649,-0.11458 1.03139,-0.0573 1.26058,0.0573 1.54711,0 3.26613,0.57302 4.87053,0.57302 0.0573,0 0.11458,0.0573 0.2292,0.0573 -0.17191,-0.0573 -0.11462,0 0,0.11462 0.0573,0 0.0573,0.0573 0.0573,0.11458 -0.0573,0 -0.0573,0.0573 -0.0573,0.11462 -0.0573,0 -0.0573,0.2292 -0.0573,0.28649 0,0.0573 -0.1719,0.28649 -0.28652,0.28649 0,0.11462 -0.0573,0 -0.0573,0.11462 -0.0573,0 -0.17191,0.11458 -0.2292,0.17187 0,0 0,0.17191 0,0.17191 0,0.0573 0.0573,0.11461 0.0573,0.17191 0.2292,0 0.4584,1.03138 0.6876,1.03138 -0.4584,-1.03138 -0.2292,0 0,0.11461 0,0.0573 0.17191,0.2292 0.17191,0.2865 0,0.22919 0,0.57301 0,0.80221 -0.0573,0 -0.0573,0.0573 -0.0573,0.11458 0,-0.11458 0,-0.0573 0.11459,0 0,0.11462 0.0573,0 0.0573,0.11462 0.11459,0 0.85948,0.11458 0.85948,0.17187 0.34381,0 0.8595,0.0573 1.20332,0.0573 0,-0.0573 0.0573,-0.0573 0,-0.0573"
       style="fill:none;stroke:#1a1a18;stroke-width:0.250014;stroke-linecap:butt;stroke-linejoin:miter;stroke-miterlimit:22.9256;stroke-dasharray:none;stroke-opacity:1"
       id="path752"
       clip-path="url(#clipPath184747)"
       transform="translate(-80.999343,-33.73588)" />
    <path
       d="m 130.12737,106.19342 c -0.43109,-0.5032 -0.19791,-0.3924 0,-0.7935 0.0513,-0.0446 0.2232,-0.15921 0.2805,-0.2165 -0.2292,0.1719 -0.0573,0.0573 0.11461,0 0.2292,0.11458 0.51569,0.11458 0.74489,0.11458 0.17191,0.0573 0.63031,0.0573 0.85951,0.0573 0.34378,-0.1719 0.97409,-0.11461 1.3752,-0.11461 0.11458,-0.0573 0.34378,-0.0573 0.51569,-0.0573 0.11458,0 0.51569,0 0.50969,-0.0645 0.2007,0.12149 0.4644,0.15497 0.4644,0.52289 0,0.15539 0.1676,1.94818 0.63031,1.94818 0.23541,0.2354 0.68971,2.4639 0.2292,2.4639 -0.0573,0.11462 -0.34378,0.34382 -0.34378,0.51573 -0.11462,0.17187 -0.11462,0.57298 -0.11462,0.11458 0,0.82769 0.34382,1.48018 0.34382,2.40661 -0.10242,0 -1.03142,0.72588 -1.03142,0.97409 -0.46239,0.46239 -1.90669,1.93241 -2.57849,1.26058 0.0998,-0.29947 0.6876,-0.77487 0.6876,-1.43248 0.067,0 0.40107,-0.87599 0.40107,-0.97409 0,-0.44521 -0.28649,-0.63892 -0.28649,-1.146 0,-0.0709 -0.26828,-2.197 -0.80218,-2.46391 0,-0.7657 -1.66239,-2.63581 -1.71901,-2.63581 0,-0.17809 0.005,-0.10467 -0.0318,-0.17787"
       style="fill:none;stroke:#1a1a18;stroke-width:0.250014;stroke-linecap:butt;stroke-linejoin:miter;stroke-miterlimit:22.9256;stroke-dasharray:none;stroke-opacity:1"
       id="path754"
       clip-path="url(#clipPath184743)"
       transform="translate(-80.999343,-33.73588)" />
    <path
       style="fill:none;stroke:#1a1a18;stroke-width:0.250014;stroke-linecap:butt;stroke-linejoin:miter;stroke-miterlimit:22.9256;stroke-dasharray:none;stroke-opacity:1"
       d="m 201.68583,113.86375 v -0.58949 l 0.0655,-0.13103 v -0.32748 h -0.26201 l -0.0655,0.0655 -0.19653,0.1965 -0.13099,0.0655 c -0.0655,0 -0.13098,0.0655 -0.19649,0.0655 h -0.1965 c -0.0655,0 -0.13099,0.0655 -0.1965,0.0655 h -0.19649 c -0.0655,0 -0.13103,0.0655 -0.26201,0.0655 0.19649,-0.0655 0.13098,0 0,0 -2.29249,0 -4.84699,-0.45851 -6.74649,-1.57202 -1.24453,-0.72051 -2.94753,-1.17902 -4.19202,-1.76851 -0.45851,-0.19649 -1.048,-0.58949 -1.57198,-0.72048 -0.39299,-0.0655 -1.44103,-0.32751 -1.63752,-0.52401 -0.72048,0 -1.50651,-0.52398 -2.16151,-0.52398 0,-0.13102 -1.57198,-0.39303 -1.703,-0.39303 -0.72048,0 -1.50647,-0.52398 -2.16147,-0.52398 -0.19649,-0.1965 -1.44102,-0.52402 -1.83402,-0.52402 -0.91701,0 -1.96501,-0.4585 -2.75099,-0.4585 0,-0.0655 -0.0655,-0.0655 -0.13099,-0.0655 0,0 -1.703,-0.655 -1.8995,-0.655 0,-0.0655 -0.1965,-0.0655 -0.26201,-0.0655 0,-0.0655 -0.39299,-0.13099 -0.4585,-0.13099 0,-0.0655 -0.0655,-0.0655 -0.13099,-0.0655 0,-0.0655 -0.26201,-0.13099 -0.32752,-0.13099 0,0.0655 -0.39299,0.13099 -0.4585,0.13099 0,0.0655 -0.1965,0.0655 -0.26197,0.0655 0,0.0655 -0.0655,0.0655 -0.13103,0.0655 l -0.0655,0.0655 c 0,0.13102 0.0655,0.19649 0.0655,0.26201 0,0.0655 -0.13098,0.262 0,0.262 l -0.0655,0.0655 c 0,0.39303 -0.13098,0.78602 -0.13098,1.17902 0.0655,0 0.0655,0.98248 0.0655,1.11351 v 3.53698 c 0.19649,0 0.26201,1.11351 0.26201,1.31001 0,0.52398 -0.39303,1.31 -0.19654,1.89949 0.0655,0.1965 0.52402,2.29249 0.13102,2.29249 0,0.0655 -0.0655,0.26201 -0.13102,0.26201 0,0.13099 -0.0655,0.32748 -0.0655,0.52402 -0.0655,0 -0.26201,0.91697 -0.26201,1.04799 -0.0655,0 -0.13099,0.393 -0.13099,0.45847 -0.0655,0 -0.0655,0.19654 -0.0655,0.26201 -0.0655,0 -0.0655,0.0655 -0.0655,0.13102 0.0655,0 0.0655,0.0655 0.0655,0.13099 0.32749,0 1.048,0.78599 1.57202,0.78599 0,0.0655 0.26197,0.13102 0.32748,0.13102 0,0.0655 0.26201,0.13099 0.32748,0.13099 l 0.39303,0.39299 c -0.39303,-0.39299 0,0 0,0.13102 0.0655,0 0.0655,0.0655 0.0655,0.13099 0.0655,0 0.91701,1.31 0.91701,1.44099 0.0655,0 0.0655,0.0655 0.0655,0.13102 l 0.0655,0.0655 c 0.32752,0 0.78603,0.4585 1.17902,0.4585 0.1965,0 1.703,0.26201 1.703,0.13103 1.76851,0 3.34049,0.85149 5.04349,0.85149 0.1965,0.0655 0.32752,0.13099 0.52402,0.13099 0.0655,0.0655 0.19649,0.13099 0.262,0.1965 -0.19653,-0.13099 -0.0655,-0.0655 0.26198,0 0.13102,0.0655 0.32752,0.0655 0.4585,0.13098 0.655,0 1.31001,0.39303 1.96501,0.39303 0.0655,0 0.13099,0.0655 0.26201,0.0655 0.13098,0.0655 0.91697,0.39299 0.91697,0.52402 -0.78599,-0.45851 0,-0.13103 0.13102,0 0.0655,0 0.13099,0.0655 0.1965,0.0655 l 0.393,0.19649 h 0.19649 c 0.0655,0 0.13103,0.0655 0.26201,0.0655 0.13099,-0.0655 0.98249,-0.0655 0.98249,-0.1965 h 0.19649 c 0,-0.0655 0.1965,-0.19649 0.26201,-0.19649 -0.26201,0.13102 -0.0655,0 0.13102,0 0.0655,0 0.26198,-0.13099 0.393,-0.13099 0.13099,0.0655 0.39299,0.13099 0.58949,0.13099 0.13099,0.13102 0.45851,0.19649 0.58949,0.19649 0.13102,0.0655 0.393,0.13102 0.52402,0.1965 0.1965,0 0.39299,0.0655 0.58949,0.0655 0.32748,0.13099 0.8515,0.45851 1.31,0.45851 0.13099,0.0655 0.65501,0.32748 0.78599,0.32748 l 0.0655,0.13102 v 0.655 c 0,0.0655 -0.19649,0.26198 -0.19649,0.32749 v 0.32752 c -0.0655,0 -0.1965,0.19649 -0.1965,0.26197 0,0.1965 0.13099,0.4585 0.26197,0.655 0.13102,0.0655 0.32752,0.1965 0.39303,0.1965 h 0.1965 c 0.13099,0.0655 0.26197,0.0655 0.39299,0.0655 0,0.0655 0.0655,0.0655 0.13099,0.0655 0,0.0655 0.0655,0.0655 0.13102,0.0655 0.0655,0 0.13099,0.0655 0.1965,0.0655 0.0655,0 0.13099,0.0655 0.1965,0.0655 0.11948,0.0159 0.28987,0.1295 0.34667,0.1295 -0.22719,-0.11359 -0.0568,0 0.11363,0 l 0.1136,0.0568 h 0.17039 l 0.0568,0.0568 0.0568,0.0568 0.0568,0.0568 0.0568,0.1136 c -0.0568,-0.1136 0,0 0.11359,0.11359 l 0.0568,0.11359 c 0.0568,0.0568 0.17039,0.22723 0.22719,0.22723 l -0.0568,0.11359 c 0.0568,-0.11359 0,0 0.1136,0 h 0.17039 0.22723 l 0.11359,-0.0568 c -0.11359,0.0568 0,0 0.11359,0 h 0.1704 l 0.0568,0.0568 0.0568,0.0568 0.0568,0.11359 0.0568,0.1136 c -0.0568,-0.1136 0,0 0,0.11359 -0.0568,-0.22719 0,-0.11359 0,0.11363 v 0.17039 l 0.0568,0.1136 c 0.0568,0 0.11363,0.11359 0.17043,0.17039 l 0.0568,0.1136 v 0.17042 c 0,-0.17042 0,0 0.11359,0.1136 0.0568,0.0568 0.11359,0.17039 0.17039,0.22719 0.0568,0.0568 0.22719,0.11359 0.28402,0.17039 l 0.0568,0.11363 0.1136,0.0568 c 0.0568,0.0568 0.11359,0.1136 0.17039,0.1704 l 0.0568,0.11359 c 0.0568,0.0568 0.22719,0.22719 0.28403,0.28399 0.0568,0 0.17039,0.11363 0.22718,0.11363 -0.17039,-0.11363 -0.0568,0 0.1136,0.11359 l 0.11359,0.0568 c 0.0568,0.0568 0.17039,0.17039 0.22719,0.17039 l 0.0568,0.11359 c 0.0568,0.0568 0.22719,0.22723 0.28399,0.22723 -0.22719,-0.17043 -0.0568,0 0,0.11359 0.1136,0 0,0.0568 0.1136,0.0568 0,0.0568 0.0568,0.17039 0.11359,0.17039 v 0.17039 c 0,0.0568 0.0568,0.1136 0.0568,0.17039 0,0.0568 -0.0568,0.17043 -0.1136,0.17043 0,0.0568 0.0568,0.1136 0.0568,0.17039 0.0568,0.0568 0.17039,0.22719 0.17039,0.28399 0.0568,0.0568 0.17043,0.17043 0.22723,0.22722 -0.1704,-0.17042 -0.0568,-0.0568 0,0.1136 l 0.0568,0.0568 c 0.1136,0 0,0.0568 0.1136,0.0568 l 0.0568,0.1136 c 0,0.0568 0,0.17039 0.0568,0.17039 l -0.0568,0.0568 c 0,0.0568 0,0.17042 -0.0568,0.17042 0,0.0568 0.0568,0.1136 0.0568,0.17039 l 0.0568,0.1136 c 0,0.0568 0.0568,0.11359 0.1136,0.11359 v 0.17039 0.22723 c 0,0.0568 -0.0568,0.11359 -0.0568,0.22719 l -0.0568,0.0568 c -0.0568,0.0568 -0.17039,0.17039 -0.22719,0.17039 l -0.0568,0.11363 c 0.0568,-0.11363 0,0 -0.1136,0.11359 0,0.0568 -0.0568,0.1136 -0.0568,0.17039 -0.0568,0.0568 -0.11363,0.1136 -0.17042,0.1136 l -0.0568,-0.1136 c -0.0568,0 -0.11359,-0.11359 -0.17039,-0.11359 l -0.0568,-0.0568 c 0,-0.0568 -0.0568,-0.11359 -0.0568,-0.17043 -0.0568,-0.0568 -0.17039,-0.17039 -0.22719,-0.22718 0.1704,0.17039 0.0568,0.0568 0,-0.1136 l -0.11363,-0.0568 c -0.0568,-0.0568 -0.17039,-0.22719 -0.28398,-0.22719 0,-0.0568 -0.1136,-0.17042 -0.1136,-0.22722 l -0.0568,-0.0568 -0.0568,-0.0568 c -0.0568,-0.0568 -0.22722,-0.1136 -0.22722,-0.22719 -0.1136,0 0,-0.0568 -0.1136,-0.0568 l -0.0568,-0.11359 c -0.0568,0 -0.11359,-0.0568 -0.11359,-0.11363 -0.0568,0 -0.17039,-0.1136 -0.17039,-0.1704 -0.0568,0 -0.17043,-0.11359 -0.22723,-0.11359 0,-0.0568 -0.0568,-0.11359 -0.0568,-0.17039 -0.0568,-0.0568 -0.1136,-0.17039 -0.1704,-0.22723 0,-0.0568 -0.11359,-0.17039 -0.11359,-0.22718 v -0.1704 l -0.0568,-0.11359 v -0.17039 c 0,-0.0568 -0.0568,-0.11363 -0.0568,-0.17043 0.0568,0.11359 0,0.0568 -0.1136,-0.11359 0,-0.0568 -0.0568,-0.1136 -0.0568,-0.1704 l -0.17042,-0.17039 c 0,-0.0568 -0.17039,-0.28402 -0.22719,-0.28402 v -0.17039 l -0.0568,-0.11359 -0.0568,-0.1136 c -0.0568,-0.0568 -0.17039,-0.17043 -0.17039,-0.22722 l -0.0568,-0.0568 c -0.0568,-0.0568 -0.11363,-0.17039 -0.17043,-0.17039 0.11359,0.11359 0.0568,0 0,-0.1136 -0.0568,0 -0.1136,-0.0568 -0.1136,-0.11359 0,-0.1136 -0.0568,-0.22723 -0.0568,-0.28402 v -0.17039 -0.1136 -0.11359 -0.17039 c 0,-0.0568 -0.0568,-0.11363 -0.0568,-0.17043 l -0.0568,-0.1136 -0.17039,-0.17039 c 0.17039,0.17039 0,0 0,-0.11359 l -0.0568,-0.0568 c -0.0568,0 -0.11363,-0.0568 -0.11363,-0.11359 0.0568,0.11359 0,0.0568 -0.11359,0 -0.1136,0 -0.17039,-0.0568 -0.28399,-0.0568 h -0.17039 c 0,0 -0.11363,0.0568 -0.17043,0.0568 l -0.11359,-0.0568 c -0.0568,0 -0.17039,-0.11359 -0.17039,-0.11359 -0.0568,0 -0.1136,-0.0568 -0.17039,-0.0568 l -0.0568,-0.0568 -0.1136,-0.0568 c 0,-0.0568 -0.0568,-0.1136 -0.0568,-0.17039 l -0.11359,-0.0568 c 0,-0.0568 -0.0568,-0.1136 -0.1136,-0.17039 l -0.11359,-0.0568 -0.1136,-0.0568 -0.11359,-0.0568 h -0.17043 c -0.11359,0 -0.22719,0 -0.34078,0.0568 -0.11359,0 -0.22719,-0.0568 -0.34082,-0.0568 -0.11359,0 -0.17039,-0.0568 -0.22719,-0.0568 -0.0568,0 -0.17039,0.1136 -0.22719,0.1136 h -0.28402 c -0.0568,0 -0.28398,-0.1136 -0.28398,-0.17039 -0.0568,0 -0.1136,-0.0568 -0.1704,-0.0568 -0.0568,-0.0568 -0.11359,-0.1136 -0.17039,-0.1136 0,-0.0568 -0.0568,-0.11359 -0.11363,-0.11359 0,-0.0568 -0.0568,-0.1136 -0.11359,-0.1136 l -0.0568,-0.0568 c 0.0568,0.0568 0,0 0,-0.11363 v -0.17039 c -0.0568,0 -0.0568,-0.0568 -0.0568,-0.1136 l -0.0568,-0.0568 v -0.17039 l 0.0568,-0.11363 c -0.0568,0.11363 0,0 0,-0.11359 0,-0.0568 0.0568,-0.1136 0.1136,-0.1136 -0.1136,0.0568 -0.0568,0 0,-0.11359 l 0.0568,-0.0568 c -0.0568,0.0568 0,0 0.11363,-0.11359 0,-0.0568 0.0568,-0.17039 0.11359,-0.17039 -0.11359,0.11359 -0.0568,0 0,-0.11363 l 0.0568,-0.0568 0.0568,-0.11359 c 0.1136,0 0,-0.0568 0.1136,-0.0568 0,-0.0568 0.0568,-0.1136 0.0568,-0.17039 0.0568,-0.0568 0.11359,-0.1704 0.17039,-0.1704 -0.1136,0.1136 -0.0568,0 0,-0.11363 l 0.0568,-0.0568 v -0.17039 c -0.0568,-0.0568 -0.11359,-0.1136 -0.17039,-0.1136 l -0.0568,-0.0568 -0.1136,-0.0568 c 0,-0.0568 -0.11359,-0.1136 -0.17039,-0.1136 -0.0568,-0.0568 -0.17043,-0.11359 -0.28402,-0.11359 0,-0.0568 -0.1136,-0.11363 -0.17039,-0.11363 -0.0568,0 -0.22719,-0.0568 -0.28399,-0.0568 -0.0568,0 -0.11363,-0.11359 -0.17043,-0.11359 -0.0568,0 -0.11359,-0.0568 -0.17039,-0.0568 -0.0568,0 -0.17039,-0.0568 -0.22719,-0.0568 -0.11359,-0.0568 -0.28402,-0.17039 -0.34082,-0.17039 h -0.17039 l -0.11359,-0.0568 c 0.11359,0.0568 0,0 -0.1136,0 -0.0568,0 -0.11359,-0.11363 -0.17039,-0.11363 0.1136,0.11363 0.0568,0 -0.11363,0 0.22723,0.11363 0.17043,0 -0.11359,0 h -0.22719 c -0.0568,0 -0.11359,0.11363 -0.17039,0.11363 0.11359,-0.11363 0.0568,0 -0.1136,0 -0.0568,0 -0.11363,0.0568 -0.17042,0.0568 0.11359,-0.0568 0.0568,0 -0.1136,0.1136 0.22719,-0.1704 0.17039,-0.1136 -0.11359,0 0.34078,-0.1704 0.28398,-0.1136 -0.1136,0.11359 -0.0568,0 -0.17039,0.0568 -0.17039,0.11359 0.1136,-0.11359 0,-0.0568 -0.11363,0 l -0.0568,0.0568 c 0.0568,-0.0568 0,0 -0.11359,0.1136 0.17039,-0.1704 0.11359,-0.1136 -0.11359,0 l -0.1136,0.0568 c 0,0 -0.11359,0.11359 -0.17039,0.11359 0.17039,-0.11359 0.0568,0 -0.11359,0 l -0.11363,0.0568 c 0.11363,-0.0568 0,0 -0.1136,0 h -0.22719 c -0.0568,0 -0.11359,-0.0568 -0.17039,-0.0568 0,-0.0568 -0.0568,-0.0568 -0.11363,-0.0568 l -0.11359,-0.0568 -0.1136,-0.0568 -0.11359,-0.0568 c 0.11359,0.0568 0,0 -0.1136,-0.1136 -0.0568,0 -0.22719,-0.11359 -0.28402,-0.11359 0.22723,0.11359 0.0568,0 -0.11359,-0.11359 -0.0568,-0.0568 -0.17039,-0.1136 -0.22719,-0.1704 l -0.1136,-0.0568 c -0.0568,0 -0.17039,-0.0568 -0.17039,-0.11363 0.1136,0.11363 0,0.0568 -0.11363,0 0,-0.0568 -0.0568,-0.0568 -0.11359,-0.0568 -0.56797,0 -1.30641,-0.28399 -1.93118,-0.28399 -0.34082,-0.34082 -2.0448,-0.51121 -2.61281,-0.51121 0,-0.0568 -0.96559,-0.22719 -1.07922,-0.22719 -0.45438,-0.22718 -0.90879,-0.34081 -1.30637,-0.7384 -0.1136,0 -0.17043,-0.0568 -0.28402,-0.0568 0,-0.39762 -1.30641,0.0568 -1.42,0.0568 -0.34079,0 -1.93118,0.39759 -1.93118,-0.34081 1.59039,0.34081 0,0.7384 -0.11363,0 0,-0.0568 -0.0568,-0.1136 -0.11359,-0.1136 -0.28399,0 -0.62481,0.1136 -0.852,0.1136 l -0.0568,-0.1136 c -0.1704,0 -0.34079,-0.0568 -0.51121,-0.0568 0.34081,0.0568 0.17042,0 0,-0.11359 -0.1136,0 -0.28399,-0.17039 -0.39758,-0.17039 l -0.0568,-0.0568 c 0.0568,0.0568 0,0 0,-0.11359 -0.0568,-0.0568 -0.17043,-0.11363 -0.22723,-0.17043 l -0.0568,-0.11359 c -0.1136,0 -0.1704,-0.1704 -0.22719,-0.22719 0,-0.22719 -0.0568,-0.7384 -0.1136,-0.90879 -0.11359,-0.22723 -0.79519,-0.62481 -0.79519,-0.85203 -0.0568,0 -0.17039,-0.0568 -0.17039,-0.1136 h -0.17043 c -0.17039,-0.17039 -0.96559,-0.39758 -0.96559,-0.568 -0.0568,0 -0.28399,-0.0568 -0.28399,-0.1136 h -0.17042 c 0,-0.0568 -0.28399,-0.11359 -0.39758,-0.11359 0,0.0568 -0.0568,0.0568 -0.1136,0.0568 l -0.0568,0.0568 -0.0568,0.0568 c 0,0.11363 -0.17039,0.22722 -0.17039,0.34082 -0.11359,0 0,0.0568 -0.11359,0.0568 0,0.0568 -0.1704,0.1704 -0.22719,0.22719 0.22719,-0.17039 0.0568,-0.0568 0,0.1136"
       id="path13966"
       clip-path="url(#clipPath184739)"
       transform="translate(-80.999343,-33.73588)" />
    <path
       d="m 168.73766,121.55121 c 0,0 0.39762,-0.34078 0.45442,-0.34078 0,0 0.0568,-0.0568 0.0568,-0.0568 0,-0.0568 0.0568,-0.1136 0.0568,-0.1704 0.0568,-0.0568 0.22719,-0.22719 0.22719,-0.28398 0.1136,0 0,-0.0568 0.1136,-0.0568 0,-0.0568 0,-0.22722 0,-0.28402 0,0 0.0568,-0.0568 0.0568,-0.0568 -0.0568,0.0568 0,0 0,-0.11359 0.11363,0 0,-0.0568 0.11363,-0.0568 0,0.0568 -0.11363,0 0,-0.11359 0,0 0.0568,-0.1136 0.0568,-0.1136 0,0 0,-0.17043 0,-0.17043 0,-0.0568 0.0568,-0.11359 0.0568,-0.17039 0,-0.0568 0.0568,-0.11359 0.0568,-0.17039 0.0568,0 0.0568,-0.0568 0.0568,-0.11359 0,-0.0568 0.1136,-0.1136 0.1136,-0.1704 0,-0.0568 0.0568,-0.11363 0.0568,-0.17042 -0.0568,0.11363 0,0.0568 0,-0.1136 0,0 0.0568,-0.11359 0.0568,-0.11359 0,-0.0568 0,-0.17039 0,-0.22719 0,0 0.0568,-0.0568 0.0568,-0.0568 0,-0.11359 0,-0.28402 0,-0.39761"
       style="fill:none;stroke:#1a1a18;stroke-width:0.250014;stroke-linecap:butt;stroke-linejoin:miter;stroke-miterlimit:22.9256;stroke-dasharray:none;stroke-opacity:1"
       id="path806"
       clip-path="url(#clipPath184735)"
       transform="translate(-80.999343,-33.73588)" />
    <path
       d="m 167.54485,114.79202 c 0.22723,0 0.7384,0.34079 0.90883,0.51118 0.0568,0 0.22719,0.0568 0.28398,0.0568 0.1136,0.0568 0.28403,0.0568 0.45442,0.0568 0,-0.0568 0,-0.22719 0,-0.28398 0,-0.0568 -0.0568,-0.1136 -0.0568,-0.22719 -0.11359,-0.22723 -0.11359,-1.19281 0,-1.30641 0,-0.6816 0.28399,-1.64719 -0.11359,-2.27199 0,-0.28402 0,-1.24961 -0.0568,-1.42 0,-0.0568 0.0568,-0.1136 0.0568,-0.1704 -0.0568,-0.17042 -0.0568,-0.45441 -0.11363,-0.6248 0,-0.7952 0.0568,-1.70402 0.0568,-2.49922 -0.0568,-0.11359 -0.0568,-0.34078 -0.0568,-0.51117 -0.45438,-0.96563 0.34081,-2.55602 -0.1136,-3.52161 0,-0.0568 0,-0.22722 0,-0.28402 -0.0568,0 -0.0568,-0.11359 -0.0568,-0.17039 0,0 0.0568,-0.0568 0.0568,-0.0568 0,0 0.0568,0.0568 0.0568,0.0568 0.85199,0 1.76082,0.11359 2.61281,0.11359 0,0.0568 0.22719,0.1136 0.28399,0.1136 0,0 0.39761,0.34082 0.45441,0.34082 0,0.0568 0.51121,0.7384 0.56801,0.7384 0,0.0568 0.0568,0.11359 0.11359,0.11359 0,0.0568 0.0568,0.11359 0.0568,0.17039 0,0 0.0568,0.0568 0.0568,0.0568 0,0 0.0568,0.0568 0.0568,0.0568 -0.0568,-0.0568 0,0 0.1136,0"
       style="fill:none;stroke:#1a1a18;stroke-width:0.250014;stroke-linecap:butt;stroke-linejoin:miter;stroke-miterlimit:22.9256;stroke-dasharray:none;stroke-opacity:1"
       id="path808"
       clip-path="url(#clipPath184731)"
       transform="translate(-80.999343,-33.73588)" />
    <path
       style="fill:none;stroke:#1a1a18;stroke-width:0.250014;stroke-linecap:butt;stroke-linejoin:miter;stroke-miterlimit:22.9256;stroke-dasharray:none;stroke-opacity:1"
       d="m 169.19208,101.95522 c 0,-0.17039 0.0568,-0.28402 0.0568,-0.45442 -0.0568,-0.0568 -0.11359,-0.11359 -0.17039,-0.11359 0,-0.0568 -0.11363,-0.11359 -0.17042,-0.11359 0,-0.0568 -0.1136,-0.1704 -0.1704,-0.1704 0,0 -0.0568,-0.0568 -0.0568,-0.0568 0,0 -0.0568,-0.0568 -0.0568,-0.0568 0,0 -0.0568,-0.0568 -0.0568,-0.0568 0,0 0,-0.1704 0,-0.1704 0,0 0.1136,-0.17039 0.1136,-0.22718 0.0568,0 0.22719,-0.1136 0.28398,-0.1704 0,-0.0568 0.0568,-0.28402 0.11363,-0.28402 -0.0568,-0.113591 -0.0568,-0.795193 0.0568,-0.795193 0,-0.340784 0.0568,-1.192813 -0.11359,-1.533596 0,-0.170392 0.11359,-1.533595 0,-1.533595 0,-0.568008 0.17039,-1.136015 0.17039,-1.64719 0.0568,0 0.11359,-0.0568 0.11359,-0.11363 0.34079,0 0.6816,0.05683 1.02239,0.05683 0,0.170392 1.02242,-0.113629 1.02242,-0.170426 1.13598,0 2.38559,-0.283987 3.5784,-0.283987"
       id="path810"
       clip-path="url(#clipPath184727)"
       transform="translate(-80.999343,-33.73588)" />
    <path
       style="fill:none;stroke:#1a1a18;stroke-width:0.250014;stroke-linecap:butt;stroke-linejoin:miter;stroke-miterlimit:22.9256;stroke-dasharray:none;stroke-opacity:1"
       d="m 169.64646,102.01201 c 0.0568,-0.39761 0.0568,-1.19281 0.0568,-1.64719 0.17043,-0.397611 0,-1.136011 0,-1.533591 0.0568,-0.11363 0.0568,-0.227224 0.0568,-0.340819 -0.11362,0 -0.17042,-1.249609 -0.17042,-1.420001 0.0568,-0.170391 0.0568,-0.454413 0,-0.568007 0,-0.113595 0,-0.397581 0,-0.511175 -0.0568,-0.11363 -0.0568,-0.227224 -0.0568,-0.340819 0.0568,0 0.0568,-0.113594 0.0568,-0.170392 0,-0.0568 0.0568,-0.113594 0.0568,-0.170391 -0.0568,0.113594 0,0.0568 0.11362,0 0.0568,0 0.1136,-0.0568 0.1704,-0.0568 0,-0.05683 1.70398,-0.11363 1.87438,-0.11363 0,0 0.11363,0.0568 0.11363,0.0568 0,0 0.0568,0.11363 0.0568,0.11363 0,0.0568 0,0.283986 0,0.340783 0,0 -0.0568,0.113595 -0.0568,0.113595 -0.0568,0 -0.11363,0.170391 -0.17043,0.170391 0.11359,-0.170391 0.0568,0 0,0.11363 -0.1136,0.227189 0,0.567972 0,0.795196 0.0568,0.113595 0.0568,0.227189 0,0.340784 0,0.0568 0,0.113594 0,0.170391 0,0.05683 -0.0568,0.11363 -0.0568,0.227224 -0.0568,0.0568 -0.17039,0.283987 -0.17039,0.283987 0.11359,-0.227189 0,0 0,0.227188 -0.17039,0.340819 -0.0568,1.136015 -0.0568,1.533631 -0.0568,0 -0.0568,0.113595 -0.0568,0.170392 0,0.0568 -0.11359,0.113594 -0.11359,0.170392 0.11359,-0.113595 0,-0.0568 0,0.113591 0,0.0568 -0.0568,0.1136 -0.0568,0.17039 -0.0568,0.0568 -0.17042,0.17043 -0.17042,0.22723 0,0.22719 -0.0568,0.45438 -0.0568,0.6816 -0.0568,0 -0.0568,0.1136 -0.0568,0.17039 0,0.0568 -0.11359,0.1136 -0.11359,0.17039 0.11359,-0.11359 0,-0.0568 0,0.1136 -0.0568,0 -0.1136,0.0568 -0.1136,0.11363 0.0568,-0.11363 0,-0.0568 0,0.11359 -0.11359,0 0,0.28399 -0.11359,0.28399"
       id="path812"
       clip-path="url(#clipPath184723)"
       transform="translate(-80.999343,-33.73588)" />
    <path
       d="m 172.03208,102.296 c 0,-0.0568 0,-0.22719 0,-0.28399 -0.11359,0 0,-0.0568 -0.11359,-0.0568 0,-0.0568 0,-0.17039 -0.0568,-0.17039 0.22723,-0.45442 0.11363,-1.36321 0.11363,-1.874419 0.0568,-0.0568 0.1136,-0.113594 0.1136,-0.170391 0.0568,0 0.39758,-0.454413 0.39758,-0.511211 0.11359,0 0,-0.0568 0.11359,-0.0568 0,-0.227189 0.39762,-0.624804 0.45441,-0.851993 0.1136,-0.397616 0.0568,-1.136015 0.0568,-1.533596 0,-0.51121 0.22719,-1.02242 0.22719,-1.420001 0.0568,0 0.11363,-0.113594 0.11363,-0.170427 0,0 0.0568,-0.0568 0.0568,-0.0568 0,0 0.0568,-0.0568 0.0568,-0.0568 0.0568,0 0.28398,0 0.34078,0 0,0.0568 0.22722,0.0568 0.22722,0.170427 0.22719,0 0.56797,0.113594 0.7952,0.113594 0,0.0568 0,0.227189 0,0.283986 0,-0.227189 0,-0.0568 0.11359,0.113595 0,0.170391 -0.11359,0.397615 -0.22719,0.51121 0,0.0568 -0.0568,0.227189 -0.11363,0.227189 0,0.340818 -0.0568,0.795196 -0.0568,1.136015 -0.0568,0 -0.0568,0.227189 -0.0568,0.283986 0,0 -0.17039,1.363204 -0.17039,1.476798 -0.0568,0 -0.34078,1.079218 -0.34078,1.192808 0,0.39758 -0.11363,0.852 -0.11363,1.24961 0,0 -0.45438,1.5904 -0.45438,1.70399 -0.17043,0 -0.39762,0.17039 -0.56801,0.17039"
       style="fill:none;stroke:#1a1a18;stroke-width:0.250014;stroke-linecap:butt;stroke-linejoin:miter;stroke-miterlimit:22.9256;stroke-dasharray:none;stroke-opacity:1"
       id="path814"
       clip-path="url(#clipPath184719)"
       transform="translate(-80.999343,-33.73588)" />
    <path
       d="m 175.55368,95.480016 c 0,0.340784 -0.0568,0.681602 -0.0568,1.022386 -0.17039,0 -0.0568,0.908826 -0.0568,0.965623 0,0.340783 -0.22718,0.681602 -0.22718,1.022385 -0.1704,0 -0.0568,1.306407 -0.1136,1.476799 -0.17039,0.340821 -0.17039,0.965591 -0.17039,1.363201 -0.1136,0 0,1.30641 -0.1136,1.30641 0,0.17039 0,0.51117 -0.0568,0.6816 0,0.17039 0,0.7384 0.0568,0.90879 0.0568,0.17039 0.45438,0.7384 0.45438,0.852 0,0 0.0568,0.0568 0.0568,0.0568 0.17039,0 1.3632,0.1136 1.3632,0.34082 1.70403,0 3.40801,1.07918 5.112,1.07918 0,-0.11359 0.0568,0 0.0568,-0.11359 -0.0568,0 0,0.11359 0.11359,0 0,-0.0568 0.6816,-0.62481 0.6816,-0.62481 0,-0.17039 0.11363,-0.39758 0.11363,-0.568 0.1136,0 0.1704,-1.5336 0.1704,-1.76079 -0.0568,0 -0.0568,-0.22719 -0.0568,-0.28398 0,0 0.17039,-0.85203 0.17039,-0.90883 0,-1.19278 0.85199,-2.669575 1.3632,-3.691995 0.45438,-0.965588 1.02239,-2.499184 1.02239,-3.578402 -0.0568,0 -0.1136,-0.113594 -0.1136,-0.170391 -0.11359,0 0,-0.0568 -0.11359,-0.0568 0,-0.113595 -0.0568,-0.340819 -0.0568,-0.511211 0.1136,-0.0568 0.22719,-0.0568 0.34079,-0.0568 0,0 0.0568,-0.113594 0.0568,-0.113594 0.11363,0 0.45442,-0.340819 0.45442,-0.454413 0.11359,0 0,-0.0568 0.11359,-0.0568 0,0.170392 0,0.511211 0,0.681602 0.0568,0 0.17039,0.0568 0.22722,0.0568 0,0.0568 0.51118,0.227224 0.62477,0.227224 0,0.227189 1.30641,0.227189 1.4768,0.227189 0,-0.0568 0.11363,-0.170392 0.11363,-0.227189 0.1136,0 0.1136,-0.340819 0.1136,-0.454413 0.0568,0 0.0568,-0.0568 0.0568,0"
       style="fill:none;stroke:#1a1a18;stroke-width:0.250014;stroke-linecap:butt;stroke-linejoin:miter;stroke-miterlimit:22.9256;stroke-dasharray:none;stroke-opacity:1"
       id="path816"
       clip-path="url(#clipPath184715)"
       transform="translate(-80.999343,-33.73588)" />
    <path
       d="m 189.52647,96.729626 c 0,0 -0.11359,-0.284021 -0.11359,-0.340819 -0.1136,0 0,-0.0568 -0.1136,-0.0568 0,-0.0568 -0.0568,-0.113594 -0.11363,-0.170392 0.11363,0.113595 0.0568,0.0568 -0.11359,0 -0.1136,-0.0568 -0.28399,-0.0568 -0.39758,-0.0568 -0.34082,0.170392 -0.96563,0 -1.24961,0 -0.0568,0 -0.1136,-0.0568 -0.17039,-0.0568 -0.0568,0 -0.1136,-0.11363 -0.1704,-0.11363 0,0 -0.17042,0 -0.17042,0 -0.0568,0 -0.1136,-0.0568 -0.22719,-0.0568 -0.0568,0 -0.1136,0.0568 -0.22719,0.0568 -0.1136,0.05683 -0.28402,0.170427 -0.39762,0.284022 0,0.170391 0,0.454413 0,0.624804 0,0.0568 -0.11359,0.170392 -0.11359,0.227189 0,0.113595 0,0.283986 -0.0568,0.397616 0,0.113594 0,0.340783 0,0.454378 0,0.0568 -0.0568,0.113594 -0.0568,0.170391 0,0.05683 -0.0568,0.11363 -0.0568,0.170427 0,0.0568 -0.0568,0.113595 -0.0568,0.170392 -0.0568,0.170392 -0.28402,0.454413 -0.34082,0.624805 0.28402,-0.454413 0.0568,-0.170392 0,0.113594 0,0.0568 -0.17039,0.227189 -0.17039,0.283986 0,0.11363 -0.0568,0.227224 -0.11359,0.284022 0,0.0568 -0.0568,0.113594 -0.0568,0.170391 0,0.0568 0,0.113598 0,0.170388 -0.0568,0.1136 -0.0568,0.17039 -0.0568,0.28402 -0.0568,0.1704 -0.28402,0.51118 -0.28402,0.68161 0,0.0568 -0.11359,0.11359 -0.11359,0.17039 0.11359,-0.1136 0,-0.0568 0,0.11359 -0.0568,0.1136 -0.0568,0.39762 -0.0568,0.56801 0,0 -0.0568,0.0568 -0.0568,0.0568 0.0568,-0.0568 0,0 -0.11359,0 -0.0568,0 -0.1136,0.0568 -0.1704,0.0568 0,0 -0.0568,0.1136 -0.0568,0.1136 0,0.56801 -0.0568,1.24961 -0.0568,1.81762 0,0.0568 -0.0568,0.11359 -0.0568,0.17039 -0.0568,0.17039 -0.22719,0.568 -0.22719,0.79519 -0.1136,0.28399 -0.34078,0.7384 -0.34078,1.07919 -0.0568,0.11363 -0.0568,0.22722 -0.0568,0.34081 0.11363,0 0.28402,0 0.39762,0 0,0.0568 0.11359,0.1136 0.17039,0.1704 0,0.11359 0.11359,0.34082 0.22722,0.34082 0,0.11359 0.39759,0.22718 0.39759,0.39758 0.0568,0 0.22718,0.22718 0.34081,0.22718 0,0.0568 0.1136,0.11363 0.1704,0.11363 0,0 0.0568,0.1136 0.0568,0.1136 0.1136,0.0568 0.22719,0.17039 0.34079,0.22719 0.0568,0 0.11363,0 0.17042,0 0.0568,0.0568 0.28399,0.11359 0.39758,0.11359 0.22719,0.1136 0.68161,0.0568 0.90879,0.0568 0,0.28402 1.87442,1.07922 2.10161,1.07922 0,0.0568 1.3064,0.6248 1.4768,0.6248 0.85202,0 2.1016,0.7384 2.89679,0.96559 0.90883,0.28399 1.87442,0.96559 2.72641,1.3632 -1.81758,-1.07921 -0.85199,-0.39761 0.1136,0 0,0.0568 0.0568,0.0568 0.11359,0.0568 0.0568,0 0.11363,0.0568 0.17043,0.0568 0.0568,0 0.11359,0.11359 0.17039,0.11359 0,0 0.17039,0 0.17039,0 0.1136,0 0.17039,-0.0568 0.28402,-0.0568 0.0568,0 0.1136,-0.0568 0.17039,-0.0568 0,0 0.1136,-0.0568 0.1136,-0.0568 0,0 0.0568,-0.0568 0.0568,-0.0568 0,-0.0568 0.0568,-0.11359 0.11359,-0.17039 0,0 0.0568,-0.11359 0.0568,-0.11359 0,0 0.0568,-0.11363 0.0568,-0.11363 0,0 0,-0.17039 0,-0.17039 0,0 0.0568,-0.0568 0.0568,-0.0568 0,-0.1136 0,-0.39758 0,-0.51121 0,0 0.0568,-0.1136 0.0568,-0.1136 0,0 0.11359,-0.0568 0.11359,-0.0568 -0.11359,0.0568 0,0 0.11359,-0.1136 0,0 0.0568,-0.11359 0.0568,-0.11359 -0.0568,0.11359 0,0 0.1136,-0.1136 0,-0.0568 0.17039,-0.22722 0.17039,-0.22722 -0.17039,0.17043 0,0 0,-0.11359 0,0 0.0568,-0.0568 0.0568,-0.0568 0,0 0.11363,-0.0568 0.11363,-0.0568 0,-0.0568 0.0568,-0.11359 0.0568,-0.17039 0.0568,0 0.17039,0 0.22719,0 0,0.11359 0,0.28399 0,0.39758 0,0 -0.0568,0.11359 -0.0568,0.11359 0,0 -0.11359,0.0568 -0.11359,0.0568 0,0 -0.17043,0.17039 -0.17043,0.17039 0,0.11359 -0.11359,0.22719 -0.11359,0.28398 0,0.1704 0.0568,0.39762 0.0568,0.56801 0,0.0568 -0.0568,0.1136 -0.0568,0.17039 0,0 -0.1136,0.0568 -0.1136,0.0568 0,0 -0.0568,0.1136 -0.0568,0.1136 -0.0568,0 -0.1704,0.11362 -0.22719,0.11362 0,0 -0.17039,0.1704 -0.17039,0.1704 0,0.0568 -0.0568,0.11359 -0.0568,0.17039 0,0.0568 -0.0568,0.17039 -0.0568,0.22719 0.0568,0 0.11363,0.0568 0.17042,0.11363 0.0568,0 0.17039,0.0568 0.22719,0.0568 0,0 0.1136,0.0568 0.1136,0.0568 0,0 0.11359,0.0568 0.11359,0.0568 0,0.11359 0.0568,0 0.0568,0.11359 0.11359,0 0.17042,0.0568 0.22722,0.0568 0.1136,0 0.28399,0 0.39758,0 0.0568,0 0.1136,-0.0568 0.17039,-0.0568 0.0568,0 0.11363,0 0.17043,0 0.1136,-0.0568 0.28399,-0.11359 0.34078,-0.11359 0.0568,0 0.1136,0 0.1704,0 0,0 0.11363,-0.0568 0.11363,-0.0568 0.11359,0 0.28398,0 0.39758,0 0,0 0.11359,-0.0568 0.11359,-0.0568 0.0568,0 0.28402,0 0.34082,0 0.0568,0 0.11359,-0.0568 0.17039,-0.0568 0,0 0.1136,-0.0568 0.1136,-0.0568 0,0 0.0568,-0.0568 0.0568,-0.0568 0.0568,-0.0568 0.22719,-0.17039 0.28402,-0.28399 0.39758,0 0.96559,-1.02238 1.07919,-1.30641 -0.68161,1.30641 -0.1136,0.28403 0,-0.11359 0.0568,0 0.11359,-0.0568 0.11359,-0.11359 0,-0.0568 0,-0.28403 0.0568,-0.28403 0,0 -0.0568,-0.11359 -0.0568,-0.11359 0,0 0,-0.17039 0,-0.17039 0.0568,0 0.0568,-0.17039 0.0568,-0.22719"
       style="fill:none;stroke:#1a1a18;stroke-width:0.250014;stroke-linecap:butt;stroke-linejoin:miter;stroke-miterlimit:22.9256;stroke-dasharray:none;stroke-opacity:1"
       id="path818"
       clip-path="url(#clipPath184711)"
       transform="translate(-80.999343,-33.73588)" />
    <path
       d="m 139.62016,108.07683 c 2.06382,0 4.97742,1.88168 6.19139,1.27469 1.15331,-0.54631 3.82412,0.84981 5.09881,-0.42492 1.821,-1.821 0.78913,0.78913 3.15641,0.78913 1.76029,0 1.5175,0.84977 3.21708,0 0.60703,-0.30353 0.0607,-1.27473 -0.42488,-1.27473 -0.36421,0 -0.54632,0.60703 -1.33541,0.24282 -0.36421,-0.18211 1.09262,-2.3066 1.51751,-1.88172 0.42489,0.42492 0.42489,1.69961 0.9712,2.24593 2.42799,2.42799 -1.6389,-0.30353 -1.6389,2.00307 0,1.09262 1.39612,2.3066 2.00311,2.91362 1.09258,1.09259 3.1564,-0.6677 4.97737,-0.6677 0.84981,0 0.24282,1.03188 1.69962,1.03188 0.48559,0 0.97119,0.1821 1.39611,0.1821 0.42489,0 1.1533,0.24282 1.09259,0.24282"
       style="fill:none;stroke:#1a1a18;stroke-width:0.250014;stroke-linecap:butt;stroke-linejoin:miter;stroke-miterlimit:22.9256;stroke-dasharray:none;stroke-opacity:1"
       id="path838"
       clip-path="url(#clipPath184707)"
       transform="translate(-80.999343,-33.73588)" />
    <path
       d="m 188.42298,124.46583 c 1.76029,-0.84981 5.28087,1.45679 7.46608,1.45679 2.18522,0 3.82412,1.27469 5.34162,2.00307 1.21398,0.60703 2.428,0.97124 4.0669,0.97124 1.57818,0 5.03809,-0.42492 5.03809,-2.30661 0,-1.3354 -2.36732,-4.7953 0.0607,-4.7953"
       style="fill:none;stroke:#1a1a18;stroke-width:0.250014;stroke-linecap:butt;stroke-linejoin:miter;stroke-miterlimit:22.9256;stroke-dasharray:none;stroke-opacity:1"
       id="path840"
       clip-path="url(#clipPath184703)"
       transform="translate(-80.999343,-33.73588)" />
    <path
       d="m 188.72648,122.82693 c 3.03498,1.51747 7.04119,0.6677 10.56177,0.6677 1.4568,0 4.249,-0.30353 5.52373,0.30349 0.4856,0.24278 1.88168,-0.42492 2.06378,-0.54631 l 0.7891,-0.6677 c 0.1821,-0.1821 0.54631,-0.84981 0.54631,-0.84981"
       style="fill:none;stroke:#1a1a18;stroke-width:0.250014;stroke-linecap:butt;stroke-linejoin:miter;stroke-miterlimit:22.9256;stroke-dasharray:none;stroke-opacity:1"
       id="path842"
       clip-path="url(#clipPath184699)"
       transform="translate(-80.999343,-33.73588)" />
    <path
       d="m 207.11858,124.64789 c 0,1.03191 -0.0607,2.30661 -0.6677,2.91363 -0.42492,0.42489 1.57818,0.36417 1.88168,0.0607 0.54631,-0.54628 1.76033,-1.88168 0.84981,-2.7922 -0.36421,-0.36417 -0.18211,-0.9712 -0.7891,-0.9712 z"
       style="fill:none;stroke:#1a1a18;stroke-width:0.250014;stroke-linecap:butt;stroke-linejoin:miter;stroke-miterlimit:22.9256;stroke-dasharray:none;stroke-opacity:1"
       id="path844"
       clip-path="url(#clipPath184695)"
       transform="translate(-80.999343,-33.73588)" />
    <path
       d="m 192.85408,123.79812 c -0.8498,0 -0.72841,1.21398 -0.42492,1.21398"
       style="fill:none;stroke:#1a1a18;stroke-width:0.250014;stroke-linecap:butt;stroke-linejoin:miter;stroke-miterlimit:22.9256;stroke-dasharray:none;stroke-opacity:1"
       id="path846"
       clip-path="url(#clipPath184691)"
       transform="translate(-80.999343,-33.73588)" />
    <path
       d="m 203.05165,123.49463 c -0.24278,0.12139 -2.24589,1.45679 -1.76029,1.94239 0.7891,0.7891 0.12139,1.82101 -0.9712,1.82101"
       style="fill:none;stroke:#1a1a18;stroke-width:0.250014;stroke-linecap:butt;stroke-linejoin:miter;stroke-miterlimit:22.9256;stroke-dasharray:none;stroke-opacity:1"
       id="path848"
       clip-path="url(#clipPath184687)"
       transform="translate(-80.999343,-33.73588)" />
    <path
       d="m 192.48987,124.1623 c 0.4856,1.5175 2.73149,-0.42489 1.6389,-0.42489"
       style="fill:none;stroke:#1a1a18;stroke-width:0.250014;stroke-linecap:butt;stroke-linejoin:miter;stroke-miterlimit:22.9256;stroke-dasharray:none;stroke-opacity:1"
       id="path850"
       clip-path="url(#clipPath184683)"
       transform="translate(-80.999343,-33.73588)" />
    <path
       d="m 205.54036,129.13971 c -1.39608,0.6677 -1.9424,1.3354 -2.6101,2.73149 -0.4856,0.97123 -0.8498,2.4887 -2.18521,2.4887"
       style="fill:none;stroke:#1a1a18;stroke-width:0.250014;stroke-linecap:butt;stroke-linejoin:miter;stroke-miterlimit:22.9256;stroke-dasharray:none;stroke-opacity:1"
       id="path852"
       clip-path="url(#clipPath184679)"
       transform="translate(-80.999343,-33.73588)" />
    <path
       d="m 201.41275,128.1078 c -0.36417,0.78913 0.54631,2.1245 0.54631,3.33851 0,0.91048 -1.21401,2.54938 -2.06378,2.54938"
       style="fill:none;stroke:#1a1a18;stroke-width:0.250014;stroke-linecap:butt;stroke-linejoin:miter;stroke-miterlimit:22.9256;stroke-dasharray:none;stroke-opacity:1"
       id="path854"
       clip-path="url(#clipPath184675)"
       transform="translate(-80.999343,-33.73588)" />
    <path
       d="m 207.54347,122.64482 c 0,0.6677 0.1821,1.27469 0.97119,1.27469"
       style="fill:none;stroke:#1a1a18;stroke-width:0.250014;stroke-linecap:butt;stroke-linejoin:miter;stroke-miterlimit:22.9256;stroke-dasharray:none;stroke-opacity:1"
       id="path856"
       clip-path="url(#clipPath184671)"
       transform="translate(-80.999343,-33.73588)" />
    <path
       d="m 206.32945,123.61602 c -0.18207,0.36421 -0.0607,0.54628 0.24282,0.84981 l 0.54631,0.30349"
       style="fill:none;stroke:#1a1a18;stroke-width:0.250014;stroke-linecap:butt;stroke-linejoin:miter;stroke-miterlimit:22.9256;stroke-dasharray:none;stroke-opacity:1"
       id="path858"
       clip-path="url(#clipPath184667)"
       transform="translate(-80.999343,-33.73588)" />
    <g
       id="g16549"
       transform="translate(-235.67176,14.73281)"
       clip-path="url(#clipPath184663)">
      <path
         style="fill:none;stroke:#1a1a18;stroke-width:0.499992;stroke-linecap:butt;stroke-linejoin:miter;stroke-miterlimit:22.9256;stroke-dasharray:none;stroke-opacity:1"
         d="m 260.7798,108.86748 -0.12514,-70.663646 h 6.00001 l 0.3324,70.432486 z"
         id="path1482"
         sodipodi:nodetypes="ccccc" />
      <path
         d="m 260.60276,98.411428 h 6.0954"
         style="fill:none;stroke:#1a1a18;stroke-width:0.250014;stroke-linecap:butt;stroke-linejoin:miter;stroke-miterlimit:22.9256;stroke-dasharray:none;stroke-opacity:1"
         id="path1490" />
      <path
         d="m 260.60276,88.421432 h 6.0954"
         style="fill:none;stroke:#1a1a18;stroke-width:0.250014;stroke-linecap:butt;stroke-linejoin:miter;stroke-miterlimit:22.9256;stroke-dasharray:none;stroke-opacity:1"
         id="path1492" />
      <path
         d="m 260.60276,78.464738 h 6.0954"
         style="fill:none;stroke:#1a1a18;stroke-width:0.250014;stroke-linecap:butt;stroke-linejoin:miter;stroke-miterlimit:22.9256;stroke-dasharray:none;stroke-opacity:1"
         id="path1494" />
      <path
         d="m 260.60276,68.474741 h 6.0954"
         style="fill:none;stroke:#1a1a18;stroke-width:0.250014;stroke-linecap:butt;stroke-linejoin:miter;stroke-miterlimit:22.9256;stroke-dasharray:none;stroke-opacity:1"
         id="path1496" />
      <path
         d="m 260.60276,58.451443 h 6.0954"
         style="fill:none;stroke:#1a1a18;stroke-width:0.250014;stroke-linecap:butt;stroke-linejoin:miter;stroke-miterlimit:22.9256;stroke-dasharray:none;stroke-opacity:1"
         id="path1498" />
      <path
         d="m 260.60276,48.461447 h 6.0954"
         style="fill:none;stroke:#1a1a18;stroke-width:0.250014;stroke-linecap:butt;stroke-linejoin:miter;stroke-miterlimit:22.9256;stroke-dasharray:none;stroke-opacity:1"
         id="path1500" />
      <path
         d="m 260.63705,98.189037 v -9.600001 h 6.00001 v 9.600001 z"
         style="fill:#10130f;fill-opacity:1;fill-rule:evenodd;stroke:#1a1a18;stroke-width:0.250014;stroke-linecap:butt;stroke-linejoin:miter;stroke-miterlimit:22.9256;stroke-dasharray:none;stroke-opacity:1"
         id="path1506" />
      <path
         d="m 260.63705,78.213525 v -9.499988 h 6.00001 v 9.499988 z"
         style="fill:#10130f;fill-opacity:1;fill-rule:evenodd;stroke:#1a1a18;stroke-width:0.250014;stroke-linecap:butt;stroke-linejoin:miter;stroke-miterlimit:22.9256;stroke-dasharray:none;stroke-opacity:1"
         id="path1508" />
      <path
         d="m 260.63705,58.206439 v -9.500023 h 6.00001 v 9.500023 z"
         style="fill:#10130f;fill-opacity:1;fill-rule:evenodd;stroke:#1a1a18;stroke-width:0.250014;stroke-linecap:butt;stroke-linejoin:miter;stroke-miterlimit:22.9256;stroke-dasharray:none;stroke-opacity:1"
         id="path1510" />
      <text
         xml:space="preserve"
         style="font-variant:normal;font-weight:normal;font-size:4.93889px;font-family:ArialMT;-inkscape-font-specification:ArialMT;writing-mode:lr-tb;fill:#1a1a18;fill-opacity:1;fill-rule:nonzero;stroke:none;stroke-width:0.352778"
         id="text1518"
         x="270.20847"
         y="110.13931"><tspan
           x="270.20847"
           y="110.13931"
           id="tspan1516"
           style="stroke-width:0.352778">0</tspan></text>
      <text
         xml:space="preserve"
         style="font-variant:normal;font-weight:normal;font-size:4.93889px;font-family:ArialMT;-inkscape-font-specification:ArialMT;writing-mode:lr-tb;fill:#1a1a18;fill-opacity:1;fill-rule:nonzero;stroke:none;stroke-width:0.352778"
         id="text1522"
         x="268.83569"
         y="99.942345"><tspan
           x="268.83569 271.5817"
           y="99.942345"
           sodipodi:role="line"
           id="tspan1520"
           style="stroke-width:0.352778">10</tspan></text>
      <text
         xml:space="preserve"
         style="font-variant:normal;font-weight:normal;font-size:4.93889px;font-family:ArialMT;-inkscape-font-specification:ArialMT;writing-mode:lr-tb;fill:#1a1a18;fill-opacity:1;fill-rule:nonzero;stroke:none;stroke-width:0.352778"
         id="text1526"
         x="268.83527"
         y="90.086334"><tspan
           x="268.83527 271.58127"
           y="90.086334"
           sodipodi:role="line"
           id="tspan1524"
           style="stroke-width:0.352778">20</tspan></text>
      <text
         xml:space="preserve"
         style="font-variant:normal;font-weight:normal;font-size:4.93889px;font-family:ArialMT;-inkscape-font-specification:ArialMT;writing-mode:lr-tb;fill:#1a1a18;fill-opacity:1;fill-rule:nonzero;stroke:none;stroke-width:0.352778"
         id="text1530"
         x="268.83667"
         y="80.268311"><tspan
           x="268.83667 271.5827"
           y="80.268311"
           sodipodi:role="line"
           id="tspan1528"
           style="stroke-width:0.352778">30</tspan></text>
      <text
         xml:space="preserve"
         style="font-variant:normal;font-weight:normal;font-size:4.93889px;font-family:ArialMT;-inkscape-font-specification:ArialMT;writing-mode:lr-tb;fill:#1a1a18;fill-opacity:1;fill-rule:nonzero;stroke:none;stroke-width:0.352778"
         id="text1534"
         x="268.83548"
         y="70.184341"><tspan
           x="268.83548 271.58148"
           y="70.184341"
           sodipodi:role="line"
           id="tspan1532"
           style="stroke-width:0.352778">40</tspan></text>
      <text
         xml:space="preserve"
         style="font-variant:normal;font-weight:normal;font-size:4.93889px;font-family:ArialMT;-inkscape-font-specification:ArialMT;writing-mode:lr-tb;fill:#1a1a18;fill-opacity:1;fill-rule:nonzero;stroke:none;stroke-width:0.352778"
         id="text1538"
         x="268.83548"
         y="60.252338"><tspan
           x="268.83548 271.58148"
           y="60.252338"
           sodipodi:role="line"
           id="tspan1536"
           style="stroke-width:0.352778">50</tspan></text>
      <text
         xml:space="preserve"
         style="font-variant:normal;font-weight:normal;font-size:4.93889px;font-family:ArialMT;-inkscape-font-specification:ArialMT;writing-mode:lr-tb;fill:#1a1a18;fill-opacity:1;fill-rule:nonzero;stroke:none;stroke-width:0.352778"
         id="text1542"
         x="268.83536"
         y="50.35844"><tspan
           x="268.83536 271.58139"
           y="50.35844"
           sodipodi:role="line"
           id="tspan1540"
           style="stroke-width:0.352778">60</tspan></text>
      <text
         xml:space="preserve"
         style="font-variant:normal;font-weight:normal;font-size:4.93889px;font-family:ArialMT;-inkscape-font-specification:ArialMT;writing-mode:lr-tb;fill:#1a1a18;fill-opacity:1;fill-rule:nonzero;stroke:none;stroke-width:0.352778"
         id="text1546"
         x="268.83487"
         y="40.120335"><tspan
           x="268.83487 271.5809"
           y="40.120335"
           sodipodi:role="line"
           id="tspan1544"
           style="stroke-width:0.352778">70</tspan></text>
    </g>
    <path
       style="fill:#ff0000;stroke:#2b0000;stroke-width:0.264583"
       d="m 167.62559,118.18882 -17.99695,18.471"
       id="path16363"
       clip-path="url(#clipPath184659)"
       transform="translate(-80.999343,-33.73588)" />
    <text
       xml:space="preserve"
       style="font-style:normal;font-variant:normal;font-weight:normal;font-stretch:normal;font-size:3.52778px;font-family:ArialMT;-inkscape-font-specification:'ArialMT, Normal';font-variant-ligatures:normal;font-variant-caps:normal;font-variant-numeric:normal;font-variant-east-asian:normal;fill:#2b0000;stroke:#2b0000;stroke-width:0.264583"
       x="131.66251"
       y="141.13539"
       id="text16419"
       clip-path="url(#clipPath184655)"
       transform="translate(-80.999343,-33.73588)"><tspan
         sodipodi:role="line"
         id="tspan16417"
         style="font-style:normal;font-variant:normal;font-weight:normal;font-stretch:normal;font-size:3.52778px;font-family:ArialMT;-inkscape-font-specification:'ArialMT, Normal';font-variant-ligatures:normal;font-variant-caps:normal;font-variant-numeric:normal;font-variant-east-asian:normal;fill:#2b0000;stroke-width:0.264583"
         x="131.66251"
         y="141.13539">Cross Stream Junction</tspan></text>
    <text
       xml:space="preserve"
       style="font-style:normal;font-variant:normal;font-weight:normal;font-stretch:normal;font-size:5.64444px;font-family:ArialMT;-inkscape-font-specification:'ArialMT, Normal';font-variant-ligatures:normal;font-variant-caps:normal;font-variant-numeric:normal;font-variant-east-asian:normal;fill:#2b0000;stroke:#2b0000;stroke-width:0.264583"
       x="106.20113"
       y="59.905853"
       id="text16553"
       clip-path="url(#clipPath184651)"
       transform="translate(-80.999343,-33.73588)"><tspan
         sodipodi:role="line"
         id="tspan16551"
         style="font-size:5.64444px;stroke-width:0.264583"
         x="106.20113"
         y="59.905853">Wet Sink cave, Gloucestershire, England</tspan></text>
    <text
       xml:space="preserve"
       style="font-style:italic;font-variant:normal;font-weight:normal;font-stretch:normal;font-size:4.93889px;font-family:ArialMT;-inkscape-font-specification:'ArialMT Italic';font-variant-ligatures:normal;font-variant-caps:normal;font-variant-numeric:normal;font-variant-east-asian:normal;fill:#2b0000;stroke:#2b0000;stroke-width:0.264583"
       x="107.06493"
       y="66.308792"
       id="text16557"
       clip-path="url(#clipPath184647)"
       transform="translate(-66.458225,-33.73588)"><tspan
         sodipodi:role="line"
         id="tspan16555"
         style="font-style:italic;font-variant:normal;font-weight:normal;font-stretch:normal;font-size:4.93889px;font-family:ArialMT;-inkscape-font-specification:'ArialMT Italic';stroke-width:0.264583"
         x="107.06493"
         y="66.308792">Only initial series shown for brevity</tspan></text>
    <use
       xlink:href="#arrow-down"
       width="10"
       height="16"
       style="fill:#000000;stroke:none"
       id="use99534"
       transform="matrix(0.36321395,0.36853426,-0.37252951,0.3593186,131.64397,80.70831)"
       clip-path="url(#clipPath184643)" />
    <use
       xlink:href="#radio-tower"
       width="16"
       height="16"
       style="fill:#ff2a2a;stroke:none"
       id="use182453"
       transform="matrix(0.13776981,0,0,0.12988828,115.02919,96.0085)"
       clip-path="url(#clipPath184639)" />
    <use
       xlink:href="#radio-tower"
       width="16"
       height="16"
       style="fill:#ff2a2a;stroke:none"
       id="use182453-1"
       transform="matrix(0.13776981,0,0,0.12988828,103.24228,91.24223)"
       clip-path="url(#clipPath184635)" />
    <use
       xlink:href="#radio-tower"
       width="16"
       height="16"
       style="fill:#ff2a2a;stroke:none"
       id="use182453-9"
       transform="matrix(0.13776981,0,0,0.12988828,88.614937,83.92857)"
       clip-path="url(#clipPath184631)" />
  </g>
</svg>
